<svg width="20" height="21" viewBox="0 0 20 21" fill="none" xmlns="http://www.w3.org/2000/svg">
<g id="email-svgrepo-com (1) 1">
<g id="style=stroke">
<g id="email">
<path id="vector (Stroke)" fill-rule="evenodd" clip-rule="evenodd" d="M3.23774 4.71394C2.67111 5.24009 2.29163 6.09382 2.29163 7.43302V13.2664C2.29163 14.6055 2.67111 15.4593 3.23774 15.9854C3.81275 16.5194 4.6791 16.808 5.83329 16.808H14.1666C15.3208 16.808 16.1871 16.5194 16.7622 15.9854C17.3288 15.4593 17.7083 14.6055 17.7083 13.2664V7.43302C17.7083 6.09382 17.3288 5.24009 16.7622 4.71394C16.1871 4.18 15.3208 3.89136 14.1666 3.89136H5.83329C4.6791 3.89136 3.81275 4.18 3.23774 4.71394ZM2.38718 3.79794C3.2705 2.97772 4.48748 2.64136 5.83329 2.64136H14.1666C15.5125 2.64136 16.7295 2.97772 17.6127 3.79794C18.5045 4.62596 18.9583 5.85557 18.9583 7.43302V13.2664C18.9583 14.8439 18.5045 16.0734 17.6127 16.9014C16.7295 17.7217 15.5125 18.058 14.1666 18.058H5.83329C4.48748 18.058 3.2705 17.7217 2.38718 16.9014C1.49548 16.0734 1.04163 14.8439 1.04163 13.2664V7.43302C1.04163 5.85557 1.49548 4.62596 2.38718 3.79794Z" fill="#138FC2"/>
<path id="vector (Stroke)_2" fill-rule="evenodd" clip-rule="evenodd" d="M16.136 6.44186C16.3471 6.71499 16.2968 7.10751 16.0237 7.31856L11.4011 10.8905C10.5758 11.5281 9.42404 11.5281 8.59871 10.8905L3.97616 7.31856C3.70302 7.10751 3.65269 6.71499 3.86375 6.44186C4.07481 6.16872 4.46732 6.11839 4.74046 6.32945L9.36296 9.90131C9.73813 10.1912 10.2617 10.1912 10.6368 9.90131L15.2594 6.32945C15.5325 6.11839 15.925 6.16872 16.136 6.44186Z" fill="#138FC2"/>
</g>
</g>
</g>
</svg>
