<svg width="21" height="22" viewBox="0 0 21 22" fill="none" xmlns="http://www.w3.org/2000/svg">
<g id="facebook-svgrepo-com (1) 1" clip-path="url(#clip0_1_6004)">
<g id="Group">
<path id="Vector" d="M11.214 8.34068H15.5632L15.08 10.2737H11.214V18.9722H9.28097V10.2737H5.41498V8.34068H9.28097V6.5314C9.28097 4.80813 9.46074 4.18281 9.79708 3.55265C10.1267 2.93004 10.6358 2.42089 11.2584 2.09131C11.8886 1.75496 12.5139 1.5752 14.2372 1.5752C14.7417 1.5752 15.1843 1.62352 15.5632 1.72017V3.50819H14.2372C12.9575 3.50819 12.568 3.58358 12.1708 3.79621C11.877 3.95278 11.6586 4.17121 11.502 4.46503C11.2894 4.86226 11.214 5.25176 11.214 6.5314V8.34068Z" fill="white"/>
</g>
</g>
<defs>
<clipPath id="clip0_1_6004">
<rect width="20.83" height="20.83" fill="white" transform="translate(0.0258179 0.571289)"/>
</clipPath>
</defs>
</svg>
