<svg width="21" height="22" viewBox="0 0 21 22" fill="none" xmlns="http://www.w3.org/2000/svg">
<g id="linkedin-svgrepo-com (3) 2">
<g id="Group">
<path id="Vector" d="M10.415 8.67375C11.2109 7.86051 12.2472 7.32848 13.4527 7.32848C14.7187 7.32848 15.9329 7.8314 16.8281 8.72661C17.7233 9.62183 18.2263 10.836 18.2263 12.102V18.6114H16.4904V12.102C16.4904 11.2964 16.1704 10.5237 15.6007 9.95403C15.031 9.38435 14.2584 9.06431 13.4527 9.06431C12.6471 9.06431 11.8744 9.38435 11.3047 9.95403C10.7351 10.5237 10.415 11.2964 10.415 12.102V18.6114H8.67918V7.76243H10.415V8.67375ZM4.33959 6.0266C3.99432 6.0266 3.66318 5.88944 3.41903 5.64529C3.17488 5.40114 3.03772 5.07001 3.03772 4.72473C3.03772 4.37945 3.17488 4.04831 3.41903 3.80416C3.66318 3.56001 3.99432 3.42285 4.33959 3.42285C4.68487 3.42285 5.01601 3.56001 5.26016 3.80416C5.50431 4.04831 5.64147 4.37945 5.64147 4.72473C5.64147 5.07001 5.50431 5.40114 5.26016 5.64529C5.01601 5.88944 4.68487 6.0266 4.33959 6.0266ZM3.47168 7.76243H5.20751V18.6114H3.47168V7.76243Z" fill="white"/>
</g>
</g>
</svg>
