<svg width="20" height="21" viewBox="0 0 20 21" fill="none" xmlns="http://www.w3.org/2000/svg">
<g id="location-arrow-svgrepo-com 1">
<path id="Vector" d="M17.625 2.9891C17.3066 2.66456 16.9029 2.43678 16.4605 2.33207C16.0181 2.22737 15.5551 2.25003 15.125 2.39743L3.33333 6.3391C2.85776 6.49476 2.44224 6.79422 2.14413 7.19613C1.84602 7.59803 1.68001 8.08257 1.66904 8.58285C1.65806 9.08313 1.80266 9.57448 2.08286 9.98907C2.36306 10.4037 2.76505 10.7211 3.23333 10.8974L7.6 12.5641C7.69943 12.6021 7.78997 12.6602 7.86595 12.7348C7.94194 12.8093 8.00176 12.8987 8.04167 12.9974L9.70833 17.3724C9.87799 17.8341 10.1858 18.2322 10.59 18.5126C10.9941 18.7929 11.4748 18.9419 11.9667 18.9391H12.025C12.5258 18.93 13.0113 18.7644 13.4133 18.4655C13.8153 18.1666 14.1137 17.7494 14.2667 17.2724L18.2083 5.4641C18.3517 5.03821 18.373 4.58071 18.2699 4.14333C18.1668 3.70595 17.9435 3.30614 17.625 2.9891ZM16.6667 4.9391L12.6833 16.7558C12.6371 16.9053 12.5442 17.0362 12.4182 17.1291C12.2923 17.2221 12.1399 17.2723 11.9833 17.2724C11.8277 17.275 11.675 17.2301 11.5455 17.1438C11.416 17.0574 11.3158 16.9337 11.2583 16.7891L9.59167 12.4141C9.47084 12.0962 9.28449 11.8073 9.04473 11.5661C8.80498 11.3249 8.51717 11.1368 8.2 11.0141L3.825 9.34743C3.67741 9.29335 3.55054 9.19426 3.46232 9.06417C3.3741 8.93408 3.32898 8.77955 3.33333 8.62243C3.33346 8.46588 3.38368 8.31349 3.47665 8.18753C3.56961 8.06158 3.70044 7.96868 3.85 7.92243L15.6667 3.98076C15.8023 3.92547 15.9511 3.91066 16.095 3.93812C16.2389 3.96558 16.3718 4.03413 16.4776 4.1355C16.5834 4.23687 16.6575 4.3667 16.6911 4.50931C16.7246 4.65192 16.7161 4.8012 16.6667 4.9391Z" fill="#138FC2"/>
</g>
</svg>
