<svg width="20" height="21" viewBox="0 0 20 21" fill="none" xmlns="http://www.w3.org/2000/svg">
<g id="phone-svgrepo-com 1">
<path id="Vector" d="M17.4996 16.6076V14.3495C17.5088 13.9803 17.3817 13.6206 17.1424 13.3389C16.4679 12.5444 14.1546 12.0362 13.2376 12.2314C12.5228 12.3836 12.0227 13.1012 11.5338 13.5892C9.64559 12.5176 8.08221 10.9574 7.00856 9.0729C7.49747 8.58497 8.21662 8.08586 8.36909 7.37246C8.56434 6.4587 8.05683 4.16014 7.26782 3.48293C6.9903 3.24473 6.63545 3.11537 6.26943 3.11897H4.00681C3.14471 3.11978 2.42746 3.89302 2.50595 4.75989C2.50006 12.2314 8.33342 18.1189 15.8554 18.113C16.7269 18.1916 17.5031 17.4708 17.4996 16.6076Z" stroke="#138FC2" stroke-width="1.5" stroke-linecap="round" stroke-linejoin="round"/>
</g>
</svg>
