<svg width="96" height="97" viewBox="0 0 96 97" fill="none" xmlns="http://www.w3.org/2000/svg">
<g id="WhatsApp">
<g id="Rectangle 692" opacity="0.25" filter="url(#filter0_d_1_6019)">
<rect x="24.75" y="21.1348" width="46.5" height="46.5" rx="23.25" stroke="white" stroke-width="1.5" shape-rendering="crispEdges"/>
</g>
<g id="&#60;Group&#62;">
<g id="&#60;Group&#62;_2">
<g id="&#60;Group&#62;_3">
<path id="&#60;Compound Path&#62;" fill-rule="evenodd" clip-rule="evenodd" d="M58.8326 44.502C58.8326 50.1338 54.2474 54.6691 48.6156 54.6691C46.8214 54.6691 45.1269 54.2206 43.6816 53.3733L38 55.2174L39.844 49.7351C38.8971 48.2399 38.3987 46.4457 38.3987 44.502C38.3987 44.3691 38.3987 44.2196 38.3987 44.0535C38.6479 38.6709 43.0835 34.3848 48.6156 34.3848C54.1477 34.3848 58.6831 38.7706 58.8326 44.2528C58.8326 44.3525 58.8326 44.4356 58.8326 44.502ZM57.1879 44.502C57.1879 44.3027 57.1713 44.0867 57.138 43.8541C56.7892 39.4683 53.1011 35.9796 48.6156 35.9796C44.1302 35.9796 40.4919 39.3686 40.0434 43.7046C40.0101 43.9704 39.9935 44.2362 39.9935 44.502C39.9935 46.3959 40.5916 48.0904 41.6382 49.5357L40.5916 52.6756L43.881 51.629C45.2266 52.5261 46.8713 53.0244 48.6156 53.0244C53.3503 53.0244 57.1879 49.2367 57.1879 44.502Z" fill="white"/>
</g>
</g>
<g id="&#60;Group&#62;_4">
<path id="&#60;Path&#62;" d="M53.7491 46.8414C53.7989 46.9411 53.7989 47.4395 53.5996 48.0376C53.4002 48.6356 52.4034 49.1839 51.905 49.2337C51.4565 49.2337 51.4565 49.5826 48.9147 48.5858C46.373 47.589 44.7781 44.9974 44.6286 44.8479C44.5289 44.6984 43.9807 44.0006 43.7315 43.1035C43.6817 42.8543 43.6318 42.5553 43.6318 42.2563C43.6318 41.0602 44.2797 40.4621 44.4791 40.2129C44.7283 39.9637 44.9775 39.864 45.1768 39.864C45.3263 39.864 45.4759 39.9139 45.6254 39.9139C45.7749 39.9139 45.9743 39.8142 46.2235 40.3126C46.4228 40.8109 46.9212 42.0569 46.971 42.1566C47.0209 42.3061 47.0707 42.4556 46.971 42.6051C46.9212 42.7048 46.8714 42.8045 46.8215 42.9042C46.7883 42.9374 46.7551 42.9706 46.7218 43.0039C46.6222 43.1534 46.4726 43.3527 46.373 43.4524C46.2234 43.6019 46.1238 43.7016 46.2733 43.9508C46.4228 44.2 46.9212 45.0472 47.6688 45.6951C48.6157 46.5424 49.4131 46.7916 49.6623 46.8913C49.9115 47.0408 50.061 47.0408 50.2106 46.8414C50.3601 46.6919 50.8584 46.1437 51.008 45.8945C51.1575 45.6453 51.3568 45.6453 51.5562 45.745C51.8054 45.8447 53.0015 46.4427 53.3006 46.5424C53.5497 46.6919 53.6992 46.7418 53.7491 46.8414Z" fill="white"/>
</g>
</g>
</g>
<defs>
<filter id="filter0_d_1_6019" x="0" y="0.384766" width="96" height="96" filterUnits="userSpaceOnUse" color-interpolation-filters="sRGB">
<feFlood flood-opacity="0" result="BackgroundImageFix"/>
<feColorMatrix in="SourceAlpha" type="matrix" values="0 0 0 0 0 0 0 0 0 0 0 0 0 0 0 0 0 0 127 0" result="hardAlpha"/>
<feOffset dy="4"/>
<feGaussianBlur stdDeviation="12"/>
<feComposite in2="hardAlpha" operator="out"/>
<feColorMatrix type="matrix" values="0 0 0 0 0.266667 0 0 0 0 0.756863 0 0 0 0 1 0 0 0 0.5 0"/>
<feBlend mode="normal" in2="BackgroundImageFix" result="effect1_dropShadow_1_6019"/>
<feBlend mode="normal" in="SourceGraphic" in2="effect1_dropShadow_1_6019" result="shape"/>
</filter>
</defs>
</svg>
