<svg width="164" height="33" viewBox="0 0 164 33" fill="none" xmlns="http://www.w3.org/2000/svg">
<g id="&#60;Group&#62;">
<g id="Path 9 00000130617549349978956110000017227296183002029748">
<g id="&#60;Group&#62;_2">
<g id="&#60;Group&#62;_3">
<g id="Path 1 00000000936286682831061350000015632004173715562882">
<path id="&#60;Path&#62;" d="M35.0458 25.3874C34.8974 25.3874 34.8499 25.3131 34.9033 25.1647L40.9165 11.1427C40.9611 11.0002 41.0858 10.9111 41.2372 10.92L42.9565 10.9022C43.108 10.8933 43.2416 10.9824 43.2862 11.1249L49.5043 25.0578C49.5636 25.2003 49.5191 25.2745 49.3706 25.2805L47.5088 25.2894C47.3662 25.2983 47.2237 25.2092 47.1881 25.0756L45.6291 21.5924C45.6172 21.527 45.5638 21.4944 45.4687 21.4944L40.3553 21.53C40.1949 21.53 40.1504 21.4677 40.2127 21.3162L40.7294 20.0512C40.7651 19.9087 40.8987 19.8107 41.0501 19.8196L44.8808 19.7929L42.1192 13.5748L37.2373 25.1468C37.1928 25.2894 37.0591 25.3785 36.9166 25.3696L35.0458 25.3874Z" fill="#3298CB"/>
</g>
<g id="Path 2 00000122001191896573858630000002476380943323420039">
<g id="&#60;Group&#62;_4">
<path id="&#60;Compound Path&#62;" fill-rule="evenodd" clip-rule="evenodd" d="M53.5576 25.0044C53.5754 25.1202 53.4952 25.2271 53.3794 25.2449C53.3616 25.2509 53.3408 25.2509 53.317 25.2449L51.6155 25.2628C51.4997 25.2806 51.3928 25.2004 51.375 25.0846C51.3691 25.0608 51.3691 25.0401 51.375 25.0222L51.2681 11.0627C51.2503 10.9469 51.3305 10.84 51.4463 10.8222C51.4641 10.8162 51.4849 10.8162 51.5086 10.8222L61.6108 10.742C61.7266 10.7242 61.8424 10.8043 61.8513 10.9201C61.8573 10.938 61.8603 10.9588 61.8603 10.9825L61.8692 12.4435C61.887 12.5593 61.8068 12.6662 61.691 12.684C61.6672 12.69 61.6465 12.69 61.6286 12.684L53.5843 12.7464C53.5309 12.7375 53.4774 12.782 53.4685 12.8355C53.4626 12.8473 53.4626 12.8592 53.4685 12.8711L53.5576 25.0044ZM54.8404 17.3521C54.8226 17.2362 54.9028 17.1293 55.0186 17.1115C55.0364 17.1056 55.0572 17.1056 55.0809 17.1115L60.4171 17.067C60.5329 17.0492 60.6398 17.1293 60.6576 17.2452C60.6576 17.263 60.6576 17.2838 60.6576 17.3075L60.6665 18.528C60.6843 18.6438 60.6042 18.7507 60.4884 18.7685C60.4705 18.7744 60.4497 18.7744 60.426 18.7685L55.0898 18.813C54.974 18.8309 54.8671 18.7507 54.8493 18.6349C54.8434 18.6111 54.8434 18.5903 54.8493 18.5725L54.8404 17.3521Z" fill="#3298CB"/>
</g>
</g>
<g id="Path 3 00000169555058414166544930000002857787735782900925">
<g id="&#60;Group&#62;_5">
<path id="&#60;Compound Path&#62;_2" fill-rule="evenodd" clip-rule="evenodd" d="M66.8223 24.8975C66.8401 25.0133 66.7599 25.1291 66.6441 25.1469C66.6204 25.1469 66.5996 25.1469 66.5818 25.1469L64.8713 25.1558C64.7555 25.1736 64.6486 25.0935 64.6308 24.9777C64.6308 24.9598 64.6308 24.9391 64.6308 24.9153L64.5239 10.9557C64.5061 10.8399 64.5863 10.733 64.7021 10.7152C64.7258 10.7093 64.7466 10.7093 64.7644 10.7152L74.8755 10.635C74.9913 10.6172 75.0982 10.6974 75.1161 10.8132C75.1161 10.837 75.1161 10.8578 75.1161 10.8756L75.125 12.3366C75.1428 12.4524 75.0626 12.5593 74.9468 12.5771C74.929 12.583 74.9082 12.583 74.8844 12.5771L66.8401 12.6394C66.7866 12.6394 66.7332 12.6751 66.7243 12.7374C66.7243 12.7434 66.7243 12.7523 66.7243 12.7642L66.8223 24.8975ZM68.1051 17.2451C68.0873 17.1293 68.1675 17.0224 68.2833 17.0046C68.307 16.9987 68.3278 16.9987 68.3456 17.0046L73.6818 16.96C73.7976 16.9422 73.9045 17.0224 73.9223 17.1382C73.9283 17.162 73.9283 17.1828 73.9223 17.2006L73.9312 18.421C73.949 18.5368 73.8689 18.6437 73.7531 18.6616C73.7352 18.6675 73.7145 18.6675 73.6907 18.6616L68.3545 18.7061C68.2387 18.7239 68.1318 18.6437 68.114 18.5279C68.114 18.5101 68.114 18.4893 68.114 18.4656L68.1051 17.2451Z" fill="#3298CB"/>
</g>
</g>
<g id="Path 4 00000014607516680448737360000004349598607462738856">
<path id="&#60;Path&#62;_2" d="M77.0135 23.3561C76.9957 23.2403 77.0759 23.1334 77.1917 23.1156C77.2155 23.1097 77.2362 23.1097 77.2541 23.1156L84.7995 23.0532C85.5746 23.1067 86.2605 22.5187 86.314 21.7437C86.3199 21.6665 86.3199 21.5922 86.314 21.521L86.2961 20.1402C86.3941 19.4008 85.8774 18.7237 85.147 18.6168C85.0163 18.599 84.8886 18.602 84.7639 18.6257L79.5881 18.6614C78.724 18.6881 77.8866 18.3407 77.2808 17.7171C76.6661 17.1024 76.3187 16.2561 76.3365 15.3741L76.3187 13.8775C76.2741 12.1137 77.6549 10.6527 79.4188 10.5992C79.4544 10.5992 79.4901 10.5992 79.5257 10.5992L87.3295 10.5369C87.478 10.5369 87.5522 10.617 87.5522 10.7774L87.5611 12.2384C87.5611 12.3987 87.4869 12.4819 87.3384 12.4878L79.98 12.5413C79.1961 12.4878 78.5191 13.0758 78.4656 13.8597C78.4597 13.931 78.4597 14.0052 78.4656 14.0824L78.4745 15.2049C78.4211 15.9799 79.009 16.657 79.793 16.7193C79.8642 16.7193 79.9385 16.7164 80.0157 16.7104L85.1915 16.6748C86.9286 16.6213 88.3896 17.9843 88.4431 19.7215C88.4431 19.7749 88.4431 19.8284 88.4431 19.8818L88.4609 21.7437C88.4965 23.4987 87.0979 24.9596 85.3429 24.9953C85.3132 24.9953 85.2835 24.9953 85.2539 24.9953L77.2719 25.0576C77.1561 25.0755 77.0492 24.9953 77.0314 24.8795C77.0254 24.8617 77.0254 24.8409 77.0314 24.8171L77.0135 23.3561Z" fill="#3298CB"/>
</g>
<g id="Path 5 00000062870638855614921730000005008069910150377101">
<path id="&#60;Path&#62;_3" d="M110.162 24.8083C108.407 24.8528 106.937 23.472 106.892 21.7082C106.892 21.6725 106.892 21.6369 106.892 21.6013L106.803 10.626C106.786 10.5102 106.866 10.4033 106.982 10.3855C107.005 10.3855 107.026 10.3855 107.044 10.3855L108.754 10.3766C108.87 10.3588 108.977 10.439 108.995 10.5548C108.995 10.5726 108.995 10.5934 108.995 10.6171L109.075 21.3429C109.039 22.1358 109.654 22.8128 110.447 22.8573C110.5 22.8573 110.554 22.8573 110.607 22.8573L115.703 22.8128C116.505 22.8573 117.182 22.2338 117.217 21.4409C117.217 21.3875 117.217 21.334 117.217 21.2806L117.137 10.5459C117.119 10.4301 117.2 10.3232 117.315 10.3053C117.333 10.3053 117.351 10.3053 117.369 10.3053L119.079 10.2964C119.195 10.2786 119.302 10.3588 119.32 10.4746C119.32 10.4924 119.32 10.5132 119.32 10.537L119.409 21.5033C119.444 23.2671 118.046 24.7192 116.291 24.7638C116.255 24.7638 116.22 24.7638 116.184 24.7638L110.162 24.8083Z" fill="#3298CB"/>
</g>
<g id="Path 6 00000064312405505115842380000014989170402683464089">
<path id="&#60;Path&#62;_4" d="M121.378 24.7192C121.229 24.7192 121.182 24.6449 121.235 24.4964L127.248 10.4745C127.284 10.332 127.418 10.2429 127.569 10.2518L129.288 10.234C129.44 10.2251 129.565 10.3142 129.609 10.4567L135.836 24.3895C135.89 24.538 135.845 24.6123 135.702 24.6123L133.841 24.6212C133.689 24.639 133.556 24.541 133.511 24.4074L131.961 20.9242C131.949 20.8588 131.896 20.8262 131.801 20.8262L126.687 20.8707C126.527 20.8707 126.482 20.7994 126.545 20.648L127.052 19.383C127.097 19.2405 127.231 19.1425 127.373 19.1603L131.204 19.1247L128.451 12.9065L123.569 24.4786C123.525 24.6212 123.391 24.7102 123.248 24.7013L121.378 24.7192Z" fill="#3298CB"/>
</g>
<g id="Path 7 00000150801083131050852720000013877310115494162083">
<path id="&#60;Path&#62;_5" d="M137.591 10.3944C137.573 10.2786 137.662 10.1717 137.778 10.1539C137.796 10.148 137.814 10.148 137.832 10.1539L146.722 10.0826C148.495 10.0559 149.965 11.4724 149.992 13.2451C149.992 13.257 149.992 13.2719 149.992 13.2897L150.018 16.0157C150.036 17.8063 148.602 19.2673 146.82 19.294C146.808 19.294 146.799 19.294 146.793 19.294H146.268L150.259 24.3183C150.366 24.4371 150.339 24.4965 150.179 24.4965L148.094 24.5143C147.943 24.5322 147.8 24.4609 147.711 24.3362L143.72 19.3118L141.439 19.3296C141.324 19.3474 141.208 19.2673 141.19 19.1514C141.19 19.1336 141.19 19.1128 141.19 19.0891L141.181 17.6905C141.163 17.5746 141.243 17.4588 141.359 17.441C141.383 17.441 141.404 17.441 141.422 17.441L146.312 17.4054C147.132 17.4321 147.809 16.7818 147.827 15.9711C147.827 15.9355 147.827 15.9028 147.827 15.8731L147.809 13.548C147.836 12.7284 147.185 12.0514 146.375 12.0336C146.339 12.0277 146.306 12.0277 146.277 12.0336L139.916 12.0781C139.854 12.0692 139.8 12.1138 139.791 12.1672C139.791 12.1791 139.791 12.191 139.791 12.2029L139.889 24.3362C139.907 24.452 139.827 24.5589 139.711 24.5767C139.693 24.5826 139.673 24.5826 139.649 24.5767L137.947 24.5945C137.832 24.6123 137.725 24.5322 137.707 24.4163C137.701 24.3926 137.701 24.3718 137.707 24.354L137.591 10.3944Z" fill="#3298CB"/>
</g>
<g id="Path 8 00000078017340477314033280000010272766561096359352">
<g id="&#60;Group&#62;_6">
<path id="&#60;Compound Path&#62;_3" fill-rule="evenodd" clip-rule="evenodd" d="M153.19 24.4698C153.074 24.4876 152.967 24.4074 152.949 24.2916C152.943 24.2738 152.943 24.256 152.949 24.2382L152.842 10.2786C152.824 10.1539 152.905 10.047 153.02 10.0292C153.038 10.0292 153.059 10.0292 153.083 10.0292L163.63 9.94901C163.746 9.93119 163.853 10.0114 163.871 10.1272C163.877 10.1509 163.877 10.1717 163.871 10.1895L163.88 11.6505C163.898 11.7663 163.818 11.8821 163.702 11.891C163.684 11.897 163.666 11.9 163.648 11.9L155.158 11.9623C155.096 11.9534 155.043 11.998 155.034 12.0514C155.034 12.0633 155.034 12.0752 155.034 12.087L155.114 22.3941C155.105 22.4565 155.15 22.5099 155.212 22.5188C155.218 22.5188 155.227 22.5188 155.239 22.5188L163.72 22.4476C163.835 22.4297 163.951 22.5099 163.96 22.6257C163.966 22.6436 163.969 22.6643 163.969 22.6881L163.978 24.1491C163.996 24.2649 163.915 24.3718 163.8 24.3896C163.776 24.3956 163.755 24.3956 163.737 24.3896L153.19 24.4698ZM156.415 16.568C156.406 16.4522 156.486 16.3364 156.602 16.3186C156.619 16.3186 156.637 16.3186 156.655 16.3186L162.455 16.274C162.57 16.2562 162.677 16.3364 162.695 16.4522C162.701 16.4759 162.701 16.4967 162.695 16.5145L162.704 17.735C162.722 17.8508 162.642 17.9666 162.526 17.9844C162.508 17.9844 162.487 17.9844 162.463 17.9844L156.673 18.029C156.557 18.0468 156.441 17.9666 156.423 17.8508C156.423 17.8271 156.423 17.8063 156.423 17.7885L156.415 16.568Z" fill="#3298CB"/>
</g>
</g>
<g id="Path 9 00000134242495235540902640000001762595747157973422">
<path id="&#60;Path&#62;_6" d="M92.9775 24.9418C92.1312 24.9686 91.3116 24.63 90.7237 24.0154C90.1268 23.4096 89.7972 22.59 89.8061 21.7348L89.7438 13.7528C89.7259 11.9711 91.1513 10.5191 92.9241 10.5012C92.9419 10.5012 92.9567 10.5012 92.9686 10.5012L100.879 10.4389C102.652 10.4033 104.122 11.8197 104.149 13.6014C104.149 13.6133 104.149 13.6251 104.149 13.637L104.211 21.6279C104.238 23.4007 102.812 24.8617 101.031 24.8795C101.019 24.8795 101.004 24.8795 100.986 24.8795L100.585 24.8439L100.986 27.8995C101.028 28.0539 100.962 28.134 100.79 28.14L99.7301 28.1489C99.5876 28.1578 99.4718 28.0598 99.4451 27.9262L97.895 21.7526C97.8415 21.5923 97.9009 21.5121 98.0732 21.5121L99.7212 21.5032C99.8638 21.4943 99.9885 21.6012 100.006 21.7437L100.14 22.9464H100.514C101.334 22.9642 102.011 22.3228 102.029 21.5032C102.029 21.4735 102.029 21.4408 102.029 21.4052L101.975 13.9043C101.993 13.0847 101.351 12.4076 100.532 12.3898C100.502 12.3898 100.47 12.3898 100.434 12.3898L93.4497 12.4433C92.6301 12.4255 91.9531 13.0669 91.9352 13.8776C91.9352 13.9132 91.9352 13.9488 91.9352 13.9844L91.9976 21.4854C91.9709 22.296 92.6123 22.9731 93.4319 22.9998C93.4616 22.9998 93.4942 22.9998 93.5298 22.9998L96.0509 22.9731C96.1846 22.9731 96.3093 23.0622 96.3271 23.1958L96.7458 24.7013C96.7874 24.8439 96.722 24.9181 96.5498 24.924L92.9775 24.9418Z" fill="#3298CB"/>
</g>
</g>
</g>
</g>
<g id="&#60;Group&#62;_7">
<g id="&#60;Group&#62;_8">
<g id="&#60;Group&#62;_9">
<g id="&#60;Group&#62;_10">
<g id="&#60;Group&#62;_11">
<path id="&#60;Path&#62;_7" d="M28 21.5354C28 21.5067 28 21.4781 28 21.4494L27.8794 6.14137C27.8904 4.49662 27.2217 2.91637 26.0158 1.77686C24.8319 0.594362 23.2204 -0.0506399 21.5432 0.0031102L6.23969 0.121358C4.56244 0.0998578 2.95097 0.766357 1.78896 1.95961C0.605024 3.12061 -0.0417565 4.71162 0.00209301 6.35637L0.122679 21.6644C0.100754 23.2984 0.736573 24.8679 1.89858 26.0397C3.03867 27.2114 4.61725 27.8564 6.26161 27.8134L13.146 27.7597L13.6503 27.7489H13.6393L13.5406 27.3404C13.5406 27.3404 13.5406 27.3368 13.5406 27.3297L13.4639 27.0609L13.431 26.9319L12.7404 24.4487C12.6856 24.1907 12.4554 24.0079 12.1923 24.0294L7.32496 24.0724C5.74638 24.1369 4.40897 22.9222 4.35416 21.3527C4.34685 21.2882 4.34319 21.2272 4.34319 21.1699L4.23357 6.78637C4.1678 5.22762 5.39558 3.90536 6.9632 3.84086C7.02898 3.84086 7.09475 3.84086 7.16053 3.84086L20.6771 3.73336C22.2448 3.66886 23.5822 4.88362 23.6479 6.44238C23.6479 6.50688 23.6479 6.57137 23.6479 6.63587L23.7576 21.0194C23.8233 22.5782 22.5956 23.9004 21.0279 23.9649C20.9622 23.9649 20.8964 23.9649 20.8306 23.9649L20.3154 23.9757L19.2082 19.9229C18.8903 18.7942 17.7063 18.1169 16.5553 18.4287C16.526 18.4358 16.4968 18.443 16.4676 18.4501L14.9328 18.9446L14.8013 18.9877L16.9719 27.7167L17.8598 31.3179C18.1119 32.4682 19.263 33.1992 20.425 32.9519C21.587 32.6939 22.3325 31.5544 22.0694 30.4042C22.062 30.354 22.0511 30.3038 22.0365 30.2537L21.3349 27.6952L21.7514 27.6844C25.1936 27.6952 27.989 24.9432 28 21.5354Z" fill="#3298CB"/>
</g>
</g>
</g>
</g>
</g>
<g id="&#60;Group&#62;_12">
<g id="&#60;Group&#62;_13">
<g id="&#60;Group&#62;_14">
<g id="&#60;Group&#62;_15">
<path id="&#60;Path&#62;_8" d="M83.9088 20.5234H83.8643L83.7039 19.6682L83.9088 20.5234Z" fill="#3298CB"/>
</g>
</g>
</g>
</g>
</g>
</svg>
